<?xml version="1.0" encoding="UTF-8"?>
<svg width="230px" height="230px" viewBox="0 0 230 230" version="1.1" xmlns="http://www.w3.org/2000/svg" xmlns:xlink="http://www.w3.org/1999/xlink">
    <title>待定</title>
    <defs>
        <linearGradient x1="68.1546226%" y1="47.6729077%" x2="0%" y2="55.9689191%" id="linearGradient-1">
            <stop stop-color="#7DD2FB" offset="0%"></stop>
            <stop stop-color="#3797E2" offset="100%"></stop>
        </linearGradient>
        <linearGradient x1="68.1546226%" y1="48.2534261%" x2="0%" y2="54.4799075%" id="linearGradient-2">
            <stop stop-color="#7DD2FB" offset="0%"></stop>
            <stop stop-color="#3797E2" offset="100%"></stop>
        </linearGradient>
        <linearGradient x1="68.1546226%" y1="48.321626%" x2="0%" y2="54.304977%" id="linearGradient-3">
            <stop stop-color="#7DD2FB" offset="0%"></stop>
            <stop stop-color="#3797E2" offset="100%"></stop>
        </linearGradient>
        <linearGradient x1="68.1546226%" y1="46.2238987%" x2="0%" y2="59.685582%" id="linearGradient-4">
            <stop stop-color="#78D0FA" offset="0%"></stop>
            <stop stop-color="#36A3E5" offset="100%"></stop>
        </linearGradient>
        <linearGradient x1="100%" y1="14.1513347%" x2="-5.64856488%" y2="89.3769881%" id="linearGradient-5">
            <stop stop-color="#AAB3F4" offset="0%"></stop>
            <stop stop-color="#242C83" offset="100%"></stop>
        </linearGradient>
        <path d="M1.84172677e-13,0.240503268 C1.63182757,13.1756729 8.55997981,22.2693738 20.7844567,27.5216059 C39.1211721,35.3999539 42.6307437,33.9929987 44.5066841,43.2885235 C46.2784055,34.5870465 48.4840383,23.9771609 51.1235825,11.4588669 C41.2388201,2.71289641 32.1206678,-1.02655813 23.7691259,0.240503268 C15.4175839,1.50756467 7.49454191,1.50756467 1.84172677e-13,0.240503268 Z" id="path-6"></path>
        <linearGradient x1="100%" y1="14.1778033%" x2="-5.64856488%" y2="89.3479144%" id="linearGradient-8">
            <stop stop-color="#AAB3F4" offset="0%"></stop>
            <stop stop-color="#242C83" offset="100%"></stop>
        </linearGradient>
        <path d="M0.971989284,1.24050327 C2.60381686,14.1756729 9.53196909,23.2693738 21.756446,28.5216059 C40.0931613,36.3999539 45.746544,34.9929987 47.6224843,44.2885235 C49.3942057,35.5870465 50.8945718,24.8213491 52.1235825,11.9914314 C42.2201463,3.55708459 33.0926571,-0.0265581313 24.7411151,1.24050327 C16.3895731,2.50756467 8.46653119,2.50756467 0.971989284,1.24050327 Z" id="path-9"></path>
        <linearGradient x1="56.68931%" y1="0%" x2="42.55499%" y2="104.921136%" id="linearGradient-11">
            <stop stop-color="#AAB3F4" offset="0%"></stop>
            <stop stop-color="#242C83" offset="100%"></stop>
        </linearGradient>
        <linearGradient x1="50%" y1="0%" x2="50%" y2="100%" id="linearGradient-12">
            <stop stop-color="#FFFFFF" offset="0%"></stop>
            <stop stop-color="#FFFFFF" offset="100%"></stop>
        </linearGradient>
        <linearGradient x1="68.1546226%" y1="41.9877621%" x2="0%" y2="70.5511403%" id="linearGradient-13">
            <stop stop-color="#7DD2FB" offset="0%"></stop>
            <stop stop-color="#3797E2" offset="100%"></stop>
        </linearGradient>
        <linearGradient x1="68.1546226%" y1="43.7163386%" x2="0%" y2="66.1173956%" id="linearGradient-14">
            <stop stop-color="#7DD2FB" offset="0%"></stop>
            <stop stop-color="#3797E2" offset="100%"></stop>
        </linearGradient>
        <linearGradient x1="68.1546226%" y1="41.8363409%" x2="0%" y2="70.9395309%" id="linearGradient-15">
            <stop stop-color="#7DD2FB" offset="0%"></stop>
            <stop stop-color="#3797E2" offset="100%"></stop>
        </linearGradient>
        <linearGradient x1="68.1546226%" y1="46.2685379%" x2="0%" y2="59.5710839%" id="linearGradient-16">
            <stop stop-color="#7DD2FB" offset="0%"></stop>
            <stop stop-color="#3797E2" offset="100%"></stop>
        </linearGradient>
        <linearGradient x1="68.1546226%" y1="47.9766241%" x2="0%" y2="55.1898962%" id="linearGradient-17">
            <stop stop-color="#49A8E1" offset="0%"></stop>
            <stop stop-color="#298CDB" offset="100%"></stop>
        </linearGradient>
    </defs>
    <g id="待定" stroke="none" stroke-width="1" fill="none" fill-rule="evenodd">
        <g id="编组-38" transform="translate(38.000000, 51.000000)">
            <g id="编组-7">
                <g id="编组-32备份-2" transform="translate(0.000000, 76.992953)">
                    <path d="M4.50929824,14.5041966 C9.61729829,8.77702881 17.1000647,6.40077726 26.9575974,7.37544201 C41.7438965,8.83743912 56.1447578,0.638631372 70.5823076,0.0786184548 C80.2073408,-0.29472349 92.02015,1.11530051 106.020735,4.30869044 C114.857818,8.09935332 123.622057,10.7462701 132.313453,12.2494407 C145.350546,14.5041966 147.638412,22.7455031 145.411888,30.9648158 C143.185365,39.1841285 97.3044194,56.5163622 60.4100776,48.4164083 C31.2093653,43.5983442 28.2237348,41.0003101 10.6473328,37.1030529 C-1.07026849,34.5048815 -3.11628001,26.9719294 4.50929824,14.5041966 Z" id="路径-25" fill="url(#linearGradient-1)" opacity="0.300000012"></path>
                    <path d="M8.78116911,22.4209838 C7.15970084,12.6034021 19.7539111,12.6034021 33.8263197,14.2847426 C47.8987282,15.966083 52.2425332,6.5220431 64.0964702,6.06191304 C71.9990949,5.75515966 82.3227656,7.1322076 95.0674823,10.1930568 C102.323161,13.3076242 109.519032,15.4824418 116.655094,16.7175098 C127.359188,18.5701117 135.310873,14.4999797 133.716026,22.4209838 C132.121178,30.341988 93.3449879,48.752156 63.0529223,42.0968947 C39.1118222,35.2436879 10.4026374,32.2385656 8.78116911,22.4209838 Z" id="路径-25" fill="url(#linearGradient-2)" opacity="0.699999988"></path>
                    <path d="M16.6312174,21.1205792 C15.3909585,13.3817485 30.6183494,16.5716132 41.3823158,17.8969507 C52.1462821,19.2222882 57.5864318,7.90854415 66.6534923,7.54584091 C72.6981993,7.30403875 80.174289,8.75920516 89.0817615,11.9113401 C94.6316205,14.3664365 100.135732,16.0807635 105.594097,17.0543212 C113.781644,18.5146576 119.863877,15.3063256 118.64398,21.5501555 C117.424084,27.7939854 101.967653,44.0742333 64.5420235,34.6514696 C55.4524272,31.9700717 47.5106801,31.8427293 36.1455074,31.8427293 C24.7803347,31.8427293 17.2558616,25.0181655 16.6312174,21.1205792 Z" id="路径-25" fill="url(#linearGradient-3)"></path>
                    <path d="M71.0101088,15.3551006 C65.1137462,9.88580447 62.165565,9.4631362 62.165565,14.0870958 C62.165565,21.0230351 86.4491253,30.634294 90.6199136,25.24 C93.4004391,21.643804 91.0759072,17.9261693 83.6463178,14.0870958 L71.0101088,15.3551006 Z" id="路径-26" fill="#308ACD"></path>
                    <path d="M86.5,15.5070473 C93.5,18.673714 95.25,21.923714 91.75,25.2570473 C86.5,30.2570473 77.75,24.2570473 73.25,24.2570473 C68.75,24.2570473 58.25,25.5070473 58.25,20.5070473 C58.25,15.5070473 54,15.7570473 57.25,13.0070473 C60.5,10.2570473 63.25,10.2570473 67.75,11.7570473 C70.75,12.7570473 77,14.0070473 86.5,15.5070473 Z" id="路径-16" fill="url(#linearGradient-4)"></path>
                </g>
                <g id="编组-6" transform="translate(90.187303, 59.536408) rotate(22.000000) translate(-90.187303, -59.536408) translate(39.187303, 16.036408)">
                    <g id="路径-3" transform="translate(0.000000, 1.000000)">
                        <mask id="mask-7" fill="white">
                            <use xlink:href="#path-6"></use>
                        </mask>
                        <use id="蒙版" fill="url(#linearGradient-5)" xlink:href="#path-6"></use>
                        <path d="M44.8999725,39.4816863 C43.4731777,22.254451 42.2374366,12.3479875 41.1927494,9.76229588 C41.4001307,8.03624744 51.9719735,36.7716152 51.080619,40.3818453 C50.4863827,42.7886653 49.8332416,44.5723637 49.1211957,45.7329404 L44.8999725,39.4816863 Z" fill="#2F388B" mask="url(#mask-7)" transform="translate(46.163355, 27.710284) scale(-1, 1) translate(-46.163355, -27.710284) "></path>
                    </g>
                    <g id="路径-3" transform="translate(48.896000, -0.000000)">
                        <mask id="mask-10" fill="white">
                            <use xlink:href="#path-9"></use>
                        </mask>
                        <use id="蒙版" fill="url(#linearGradient-8)" transform="translate(26.547786, 22.640399) scale(-1, 1) translate(-26.547786, -22.640399) " xlink:href="#path-9"></use>
                        <path d="M5.38057567,42.2599415 C3.95378086,25.0327063 2.71803984,15.1262428 1.67335259,12.5405511 C1.88073386,10.8145027 10.7739131,34.3353829 9.8825586,37.9456129 C9.28832227,40.352433 8.63518115,42.1361313 7.92313525,43.2967081 L5.38057567,42.2599415 Z" fill="#3F49A0" mask="url(#mask-10)"></path>
                    </g>
                    <path d="M50.2552514,11.9218136 C46.0734865,36.9060769 43.0060637,52.1103096 41.0529831,57.5345117 C38.1233621,65.6708149 35.393096,74.7880272 36.3215796,81.8778894 C36.7576708,85.2078633 40.8063538,86.377383 49.3569924,85.9431321 C51.0822354,85.8555142 53.6768093,82.7290854 55.7759087,82.5154605 C57.2853603,82.3618439 59.7745459,83.1971409 63.2434653,85.0213514 C56.7030119,67.3295768 53.7685274,54.7872303 54.4400117,47.3943119 C55.4472382,36.3049341 52.2033943,18.3417828 51.8717035,16.7217463 C51.6505764,15.641722 51.111759,14.0417444 50.2552514,11.9218136 Z" id="路径-35" fill="url(#linearGradient-11)"></path>
                    <path d="M37.9490291,85.0965205 C38.3982537,85.5154292 45.4096459,79.3167529 45.4096459,63.9278907 C45.4096459,48.5390284 52.0338541,23.6126023 51.1391528,23.6126023 C50.2444516,23.6126023 44.1786128,48.5390284 44.1786128,63.9278907 C44.1786128,79.3167529 37.4998045,84.6776118 37.9490291,85.0965205 Z" id="椭圆形" fill="url(#linearGradient-12)" opacity="0.400000006" transform="translate(44.574802, 54.364465) scale(-1, 1) rotate(-21.000000) translate(-44.574802, -54.364465) "></path>
                </g>
                <g id="编组-8" transform="translate(89.026843, 60.994951)">
                    <path d="M10.0202076,24.3859578 C14.2469163,17.9376009 18.0853499,15.0464211 21.5355085,15.7124184 C25.0302054,16.541844 24.1028908,21.3872338 20.05325,20.86812 C17.3534895,20.5220441 14.009142,21.6946567 10.0202076,24.3859578 Z" id="路径-34" fill="url(#linearGradient-13)"></path>
                    <path d="M1.44,14.0555454 C7.50880996,5.44568372 13.3289136,1.91192793 18.900311,3.45427809 C21.6111789,4.55502965 21.4676933,9.12909353 17.4180524,8.60997968 C12.3438675,6.71300767 7.01785004,8.52819626 1.44,14.0555454 Z" id="路径-34备份-2" fill="url(#linearGradient-14)" transform="translate(11.085628, 8.579173) rotate(-17.000000) translate(-11.085628, -8.579173) "></path>
                </g>
                <g id="编组-8" transform="translate(54.266843, 57.714951) scale(-1, 1) translate(-54.266843, -57.714951) translate(46.766843, 42.714951)">
                    <path d="M1.2802076,29.2659578 C5.34427174,22.6087565 9.18270537,19.7175767 12.7955085,20.5924184 C16.2041347,21.5860096 15.3628908,26.2672338 11.31325,25.74812 C8.61348945,25.4020441 5.26914198,26.5746567 1.2802076,29.2659578 Z" id="路径-34备份" fill="url(#linearGradient-15)"></path>
                    <path d="M0.7266549,10.0277318 C4.9162669,5.13057574 8.91909622,3.20395889 12.7351429,4.24788126 C15.4460108,5.34863281 15.3025252,9.9226967 11.2528844,9.40358285 C6.17869944,7.50661084 2.66995628,7.7146605 0.7266549,10.0277318 Z" id="路径-34备份-2" fill="url(#linearGradient-16)" transform="translate(7.646372, 7.000234) rotate(-41.000000) translate(-7.646372, -7.000234) "></path>
                </g>
            </g>
            <path d="M61.2187336,91.4532632 C57.8279317,93.4850556 56.9376246,95.0811856 58.5478123,96.2416532 C60.9630937,97.9823546 63.5202518,95.5171916 63.6997371,99.337242 C63.8792225,103.157292 70.1841419,101.929102 72.2543831,100.1884 C74.3246244,98.4476988 80.8803884,97.7514182 85.3659111,99.4921196 C89.8514338,101.232821 94.3817533,97.3557311 94.3225769,95.0516048 C94.2634005,92.7474785 91.5626294,90.0739489 85.3519057,90.0739489 C85.3519057,90.0739489 85.815372,92.2772745 86.7423045,96.6839256 C83.5244408,94.6104651 80.6503616,93.6897816 78.1200667,93.9218752 C74.3246244,94.2700154 69.5813399,99.1590607 66.4291829,97.8837545 C63.2770259,96.6084483 62.6722211,94.1827089 61.2130964,92.8774543 C61.2130964,92.8774543 61.2149755,92.4027239 61.2187336,91.4532632 Z" id="路径-36" fill="url(#linearGradient-17)" transform="translate(76.046653, 95.962213) rotate(14.000000) translate(-76.046653, -95.962213) "></path>
        </g>
    </g>
</svg>