<?xml version="1.0" standalone="no"?>
<!DOCTYPE svg PUBLIC "-//W3C//DTD SVG 20010904//EN"
 "http://www.w3.org/TR/2001/REC-SVG-20010904/DTD/svg10.dtd">
<svg version="1.0" xmlns="http://www.w3.org/2000/svg"
 width="230.000000pt" height="230.000000pt" viewBox="0 0 230.000000 230.000000"
 preserveAspectRatio="xMidYMid meet">

<g transform="translate(0.000000,230.000000) scale(0.100000,-0.100000)"
fill="#000000" stroke="none">
<path d="M964 1745 c-12 -47 1 -149 25 -198 14 -30 59 -83 118 -140 52 -51
102 -107 110 -126 8 -18 16 -31 19 -29 4 5 -19 90 -36 133 -4 11 -29 88 -56
171 l-47 151 -63 31 -64 32 -6 -25z"/>
<path d="M1321 1413 c-28 -31 -51 -64 -51 -72 0 -9 -3 -27 -6 -41 -4 -15 9 -1
33 35 61 95 85 135 80 135 -3 0 -28 -26 -56 -57z"/>
<path d="M1655 1380 c-60 -33 -147 -79 -193 -102 l-82 -43 142 -3 c125 -2 150
0 203 19 63 22 101 50 147 109 l27 34 -52 17 c-29 9 -59 19 -67 22 -8 4 -63
-19 -125 -53z"/>
<path d="M1199 1147 c-25 -34 -51 -61 -57 -60 -14 3 -90 -89 -122 -149 l-25
-47 22 -28 c20 -27 24 -28 94 -25 60 3 77 0 100 -17 l27 -20 6 72 c10 105 27
206 42 251 13 37 13 41 -8 63 -12 13 -24 23 -27 22 -3 0 -27 -28 -52 -62z
m-86 -110 c-17 -17 -40 -48 -52 -67 -11 -19 -21 -30 -21 -24 0 17 90 137 98
130 3 -4 -8 -21 -25 -39z"/>
<path d="M1149 1113 c-13 -16 -12 -17 4 -4 9 7 17 15 17 17 0 8 -8 3 -21 -13z"/>
<path d="M977 893 c-10 -9 -9 -23 1 -23 5 0 9 7 9 15 0 17 -1 18 -10 8z"/>
</g>
</svg>
